<?xml version="1.0" encoding="utf-8"?>
<!-- Generator: Adobe Illustrator 16.0.0, SVG Export Plug-In . SVG Version: 6.00 Build 0)  -->
<!DOCTYPE svg PUBLIC "-//W3C//DTD SVG 1.1//EN" "http://www.w3.org/Graphics/SVG/1.1/DTD/svg11.dtd">
<svg version="1.1" id="Layer_4" xmlns="http://www.w3.org/2000/svg" xmlns:xlink="http://www.w3.org/1999/xlink" x="0px" y="0px"
	 width="300px" height="300px" viewBox="0 0 300 300" enable-background="new 0 0 300 300" xml:space="preserve">
<path fill="#009E6D" d="M296.026,150.002c0,80.648-65.377,146.023-146.026,146.023c-80.646,0-146.026-65.375-146.026-146.023
	C3.974,69.353,69.354,3.975,150,3.975C230.649,3.975,296.026,69.353,296.026,150.002z"/>
<path fill="#FFFFFF" d="M272.373,186.049c-1.746-7.205-14.773-33.418-21.076-43.669c-1.867-3.034-6.613-9-4.79-10.474
	c1.709-1.38,6.441,7.384,8.279,10.374c6.802,11.059,16.065,32.243,17.547,43.305l0.143-0.746
	c10.038-54.935-36.021-78.334-51.066-108.855c-8.973-18.202-12.007-38.259-13.099-59.586C190.729,8.73,170.373,4.109,150,3.975
	c-20.373,0.134-40.73,4.755-58.311,12.422c-1.091,21.327-4.127,41.384-13.098,59.586c-15.046,30.521-61.105,53.92-51.067,108.855
	l0.11,0.574c1.552-11.107,10.754-32.129,17.521-43.133c1.839-2.989,6.571-11.754,8.279-10.374c1.823,1.475-2.923,7.44-4.789,10.474
	c-6.183,10.054-18.84,35.476-20.971,43.246l0.017,0.088c-1.895,9.297-1.443,16.795,2.067,26.523c0.02-2.215,0.429-4.154,1.96-9.643
	c4.137-14.826,17.079-45.389,33.993-61.167c0.971-0.906,2.412-2.059,3.453-1.232c1.359,1.081-0.539,2.713-1.047,3.188
	c-16.211,15.124-29.198,42.872-33.993,57.055c-1.07,3.166-3.27,8.531-4.339,11.875c0.011,0.029,0.02,0.059,0.03,0.088l-0.23,1.037
	c-3.479,10.396,5.113,16.488,10.135,9.459l1.917-4.707c-0.005-0.061-0.004-0.119,0.007-0.162c0.355-1.482,1.536-5.6,2.96-9.568
	c1.654-4.611,4.041-9.125,8.773-18.049c9.607-18.119,18.046-28.783,25.683-37.479c1.223-1.391,2.426-2.217,3.145-1.547
	c0.667,0.623-0.137,2.057-1.189,3.277c-10.659,12.373-15.429,18.684-26.347,36.65c-5.257,8.65-7.709,12.736-9.914,18.551
	c-0.921,2.428-2.437,6.607-2.61,8.252c0.34,3.959,5.572,9.385,10.979,2.137c7.697-10.322,12.051-20.887,23.841-37.428
	c6.83-9.59,11.154-16.922,22.786-26.648l6.092-5.829c0,0-9.8,14.606-15.379,30.766c-3.196,9.256,7.985,12.875,13.9,4.441
	c3.843-5.49,12.641-20.861,21.559-32.715c5.825-7.749,14.89-26.084,17.621-40.414c3.201-16.794-0.617-43.241-2.222-57.756
	c-1.074-9.674,2.73-29.223,8.678-47.453c5.947,18.23,9.753,37.779,8.679,47.453c-1.604,14.515-5.424,40.962-2.223,57.756
	c2.733,14.33,11.797,32.666,17.622,40.414c8.918,11.854,17.714,27.225,21.558,32.715c5.915,8.434,17.098,4.814,13.901-4.441
	c-5.58-16.16-15.38-30.766-15.38-30.766l6.092,5.829c11.632,9.727,15.957,17.059,22.788,26.648
	c11.789,16.541,16.142,27.105,23.84,37.428c5.247,7.035,10.332,2.131,10.938-1.785c0.062-1.301-1.634-5.979-2.628-8.604
	c-2.206-5.814-4.657-9.9-9.914-18.551c-10.918-17.967-15.688-24.277-26.347-36.65c-1.053-1.221-1.856-2.654-1.189-3.277
	c0.719-0.67,1.922,0.156,3.145,1.547c7.636,8.695,16.075,19.359,25.683,37.479c4.732,8.924,7.119,13.438,8.773,18.049
	c1.424,3.969,2.604,8.086,2.959,9.568l0,0l1.982,4.869c5.022,7.029,13.614,0.938,10.135-9.459l-0.229-1.037
	c-1.06-3.34-3.288-8.77-4.368-11.963c-4.795-14.184-17.781-41.932-33.993-57.055c-0.507-0.474-2.405-2.106-1.045-3.188
	c1.04-0.827,2.48,0.326,3.452,1.232c16.914,15.778,29.856,46.341,33.993,61.167c1.568,5.623,1.961,7.521,1.961,9.807
	C273.708,202.709,274.197,195.242,272.373,186.049z"/>
</svg>
