<?xml version="1.0" encoding="utf-8"?>
<svg xmlns="http://www.w3.org/2000/svg" xmlns:xlink="http://www.w3.org/1999/xlink">
<symbol viewBox="0 0 24 24" class="ph-icon" fill="currentColor" id="facebook" xmlns="http://www.w3.org/2000/svg"><path fill-rule="evenodd" d="M23.9981 11.9991C23.9981 5.37216 18.626 0 11.9991 0C5.37216 0 0 5.37216 0 11.9991C0 17.9882 4.38789 22.9522 10.1242 23.8524V15.4676H7.07758V11.9991H10.1242V9.35553C10.1242 6.34826 11.9156 4.68714 14.6564 4.68714C15.9692 4.68714 17.3424 4.92149 17.3424 4.92149V7.87439H15.8294C14.3388 7.87439 13.8739 8.79933 13.8739 9.74824V11.9991H17.2018L16.6698 15.4676H13.8739V23.8524C19.6103 22.9522 23.9981 17.9882 23.9981 11.9991Z"/></symbol>
<symbol viewBox="0 0 24 24" class="ph-icon" fill="currentColor" id="twitter" xmlns="http://www.w3.org/2000/svg"><path fill-rule="evenodd" d="M23.954 4.569c-.885.389-1.83.654-2.825.775 1.014-.611 1.794-1.574 2.163-2.723-.951.555-2.005.959-3.127 1.184-.896-.959-2.173-1.559-3.591-1.559-2.717 0-4.92 2.203-4.92 4.917 0 .39.045.765.127 1.124C7.691 8.094 4.066 6.13 1.64 3.161c-.427.722-.666 1.561-.666 2.475 0 1.71.87 3.213 2.188 4.096-.807-.026-1.566-.248-2.228-.616v.061c0 2.385 1.693 4.374 3.946 4.827-.413.111-.849.171-1.296.171-.314 0-.615-.03-.916-.086.631 1.953 2.445 3.377 4.604 3.417-1.68 1.319-3.809 2.105-6.102 2.105-.39 0-.779-.023-1.17-.067 2.189 1.394 4.768 2.209 7.557 2.209 9.054 0 13.999-7.496 13.999-13.986 0-.209 0-.42-.015-.63.961-.689 1.8-1.56 2.46-2.548l-.047-.02z"/></symbol>
<symbol viewBox="0 0 24 24" class="ph-icon" fill="currentColor" id="linkedin" xmlns="http://www.w3.org/2000/svg"><path fill-rule="evenodd" d="M20.447 20.452h-3.554v-5.569c0-1.328-.027-3.037-1.852-3.037-1.853 0-2.136 1.445-2.136 2.939v5.667H9.351V9h3.414v1.561h.046c.477-.9 1.637-1.85 3.37-1.85 3.601 0 4.267 2.37 4.267 5.455v6.286zM5.337 7.433c-1.144 0-2.063-.926-2.063-2.065 0-1.138.92-2.063 2.063-2.063 1.14 0 2.064.925 2.064 2.063 0 1.139-.925 2.065-2.064 2.065zm1.782 13.019H3.555V9h3.564v11.452zM22.225 0H1.771C.792 0 0 .774 0 1.729v20.542C0 23.227.792 24 1.771 24h20.451C23.2 24 24 23.227 24 22.271V1.729C24 .774 23.2 0 22.222 0h.003z"/></symbol>
<symbol viewBox="0 0 24 24" class="ph-icon" fill="currentColor" id="instagram" xmlns="http://www.w3.org/2000/svg"><path fill-rule="evenodd" d="M12 0C8.74 0 8.333.015 7.053.072 5.775.132 4.905.333 4.14.63c-.789.306-1.459.717-2.126 1.384S.935 3.35.63 4.14C.333 4.905.131 5.775.072 7.053.012 8.333 0 8.74 0 12s.015 3.667.072 4.947c.06 1.277.261 2.148.558 2.913.306.788.717 1.459 1.384 2.126.667.666 1.336 1.079 2.126 1.384.766.296 1.636.499 2.913.558C8.333 23.988 8.74 24 12 24s3.667-.015 4.947-.072c1.277-.06 2.148-.262 2.913-.558.788-.306 1.459-.718 2.126-1.384.666-.667 1.079-1.335 1.384-2.126.296-.765.499-1.636.558-2.913.06-1.28.072-1.687.072-4.947s-.015-3.667-.072-4.947c-.06-1.277-.262-2.149-.558-2.913-.306-.789-.718-1.459-1.384-2.126C21.319 1.347 20.651.935 19.86.63c-.765-.297-1.636-.499-2.913-.558C15.667.012 15.26 0 12 0zm0 2.16c3.203 0 3.585.016 4.85.071 1.17.055 1.805.249 2.227.415.562.217.96.477 1.382.896.419.42.679.819.896 1.381.164.422.36 1.057.413 2.227.057 1.266.07 1.646.07 4.85s-.015 3.585-.074 4.85c-.061 1.17-.256 1.805-.421 2.227-.224.562-.479.96-.899 1.382-.419.419-.824.679-1.38.896-.42.164-1.065.36-2.235.413-1.274.057-1.649.07-4.859.07-3.211 0-3.586-.015-4.859-.074-1.171-.061-1.816-.256-2.236-.421-.569-.224-.96-.479-1.379-.899-.421-.419-.69-.824-.9-1.38-.165-.42-.359-1.065-.42-2.235-.045-1.26-.061-1.649-.061-4.844 0-3.196.016-3.586.061-4.861.061-1.17.255-1.814.42-2.234.21-.57.479-.96.9-1.381.419-.419.81-.689 1.379-.898.42-.166 1.051-.361 2.221-.421 1.275-.045 1.65-.06 4.859-.06l.045.03zm0 3.678c-3.405 0-6.162 2.76-6.162 6.162 0 3.405 2.76 6.162 6.162 6.162 3.405 0 6.162-2.76 6.162-6.162 0-3.405-2.76-6.162-6.162-6.162zM12 16c-2.21 0-4-1.79-4-4s1.79-4 4-4 4 1.79 4 4-1.79 4-4 4zm7.846-10.405c0 .795-.646 1.44-1.44 1.44-.795 0-1.44-.646-1.44-1.44 0-.794.646-1.439 1.44-1.439.793-.001 1.44.645 1.44 1.439z"/></symbol>
<symbol viewBox="0 0 24 24" class="ph-icon" fill="currentColor" id="physio-logo" xmlns="http://www.w3.org/2000/svg"><path fill-rule="evenodd" d="m12 0c1.6742 0.011012 3.347 0.39082 4.7918 1.021 0.08974 1.7526 0.33912 3.4008 1.0765 4.8966 1.2364 2.5081 5.0214 4.431 4.1965 8.9455l-0.01188 0.06131c-0.12178-0.90904-0.88298-2.65-1.442-3.5588-0.15104-0.24571-0.53977-0.96584-0.68021-0.85243-0.14981 0.12113 0.24013 0.61145 0.39355 0.86078 0.51796 0.8424 1.5885 2.9964 1.732 3.5885 0.14989 0.75546 0.10975 1.3691-0.17976 2.1655l0.01878 0.08523c0.2859 0.8544-0.42015 1.3549-0.83285 0.77732l-0.16291-0.40014c-0.02917-0.12179-0.12614-0.46014-0.24316-0.7863-0.13592-0.37892-0.33212-0.74986-0.72098-1.4832-0.78956-1.4891-1.4829-2.3654-2.1105-3.0799-0.1005-0.11431-0.19948-0.18218-0.25857-0.12712-0.05481 0.0512 0.01121 0.16882 0.09775 0.26916 0.87593 1.0168 1.268 1.5354 2.1652 3.0118 0.43201 0.71092 0.63343 1.0467 0.81471 1.5245 0.08169 0.21572 0.22097 0.60026 0.21588 0.70718-0.0498 0.32181-0.46763 0.72482-0.89882 0.1467-0.63261-0.84832-0.99031-1.7166-1.9591-3.0759-0.56135-0.788-0.91686-1.3904-1.8727-2.1897l-0.50061-0.4791s0.80541 1.2003 1.264 2.5282c0.26272 0.76055-0.65622 1.0581-1.1423 0.36498-0.31589-0.45115-1.0388-1.7143-1.7716-2.6884-0.47868-0.63671-1.2236-2.1435-1.4482-3.3211-0.26305-1.3801 0.051-3.5534 0.18281-4.7462 0.08826-0.79498-0.22457-2.4015-0.71328-3.8996-0.48879 1.4981-0.80137 3.1046-0.71311 3.8996 0.1319 1.1928 0.4457 3.3661 0.18265 4.7462-0.22443 1.1776-0.96937 2.6843-1.4481 3.3211-0.73286 0.97413-1.456 2.2373-1.7718 2.6884-0.48608 0.69308-1.4048 0.39565-1.1421-0.36498 0.45847-1.328 1.2638-2.5282 1.2638-2.5282l-0.50061 0.4791c-0.95589 0.79926-1.3113 1.4017-1.8726 2.1897-0.96887 1.3593-1.3267 2.2276-1.9593 3.0759-0.44433 0.59562-0.87425 0.14959-0.90219-0.17575 0.014217-0.13518 0.13891-0.4786 0.21459-0.67812 0.1812-0.47786 0.38271-0.81362 0.81471-1.5245 0.89721-1.4764 1.2891-1.9951 2.165-3.0118 0.08645-0.10026 0.15256-0.21797 0.09775-0.26916-0.05908-0.05506-0.15791 0.01281-0.25841 0.12712-0.62759 0.71462-1.3211 1.5909-2.1106 3.0799-0.38886 0.73335-0.58506 1.1043-0.72098 1.4832-0.11702 0.32608-0.21399 0.66452-0.24316 0.7863-9.04e-4 0.0035-0.00105 0.0083-6.41e-4 0.01332l-0.15746 0.38681c-0.4127 0.57762-1.1187 0.077-0.83285-0.77732l0.018779-0.08523c-8.218e-4 -0.0024-0.0015-0.0048-0.00241-0.0072 0.087848-0.2748 0.26855-0.71568 0.35648-0.97586 0.39404-1.1655 1.4614-3.4458 2.7936-4.6886 0.041746-0.03903 0.19771-0.17327 0.08603-0.2621-0.085547-0.06796-0.20397 0.02682-0.28377 0.10128-1.39 1.2966-2.4534 3.8083-2.7934 5.0266-0.12581 0.45107-0.1595 0.61038-0.16115 0.7924-0.28844-0.79942-0.32554-1.4156-0.16981-2.1796l-0.00144-0.0072c0.17512-0.63854 1.2152-2.7277 1.7233-3.5539 0.15334-0.24933 0.54336-0.73956 0.39355-0.86078-0.14036-0.1134-0.52925 0.60696-0.68037 0.85259-0.5561 0.90428-1.3122 2.6318-1.4397 3.5445l-0.00915-0.04719c-0.8249-4.5144 2.9602-6.4373 4.1967-8.9455 0.73722-1.4958 0.98668-3.144 1.0763-4.8966 1.4448-0.63005 3.1176-1.0098 4.7918-1.0208zm0 0c-6.6273 0-12 5.3726-12 12 0 6.6274 5.3727 12 12 12 6.6275 0 12-5.3724 12-12 0-6.6275-5.3725-12-12-12zm9.8765 17.128c0-0.18786-0.03229-0.3438-0.16115-0.80588-0.33997-1.2184-1.4036-3.73-2.7936-5.0266-0.07988-0.07445-0.19814-0.16924-0.28361-0.10128-0.11176 0.08892 0.0442 0.22315 0.08587 0.2621 1.3323 1.2428 2.3994 3.523 2.7934 4.6886 0.08875 0.26239 0.27194 0.70861 0.35904 0.98308z" /></symbol>

</svg>