<?xml version="1.0" encoding="utf-8"?>
<!-- Generator: Adobe Illustrator 16.0.0, SVG Export Plug-In . SVG Version: 6.00 Build 0)  -->
<!DOCTYPE svg PUBLIC "-//W3C//DTD SVG 1.1//EN" "http://www.w3.org/Graphics/SVG/1.1/DTD/svg11.dtd">
<svg version="1.1" xmlns="http://www.w3.org/2000/svg" xmlns:xlink="http://www.w3.org/1999/xlink" x="0px" y="0px" width="100px"
	 height="100px" viewBox="0 0 100 100" enable-background="new 0 0 100 100" xml:space="preserve">
<g id="Layer_1" display="none">
	<path display="inline" fill="none" stroke="#000000" stroke-width="3" stroke-miterlimit="10" d="M73.845,20.009L73.482,2.434
		c-6.623,0-25.351-1.811-32.232,7.657c-6.121,8.423-3.709,24.406-3.709,24.406l-11.087,0.497L26.971,52.5h10.14l-0.171,46h21.383
		l-0.414-46.143l14.971-0.414l-0.07-17.002l-15.141,0.015c0,0-0.189-6.72-0.034-9.542c0.195-3.591,1.241-5.532,4.828-5.532
		C66.048,19.882,73.845,20.009,73.845,20.009z"/>
</g>
<g id="Layer_2">
	<path fill="none" stroke="#000000" stroke-width="3" stroke-miterlimit="10" d="M48.616,37.817c0,0-24.522-2.944-34.857-19.167
		c-4.322,8.895-1.691,19.073,4.134,23.113c-3.257-0.088-5.879-0.56-7.27-0.939c0,0,1.571,11.274,12.846,16.536
		c-2.562,0.971-6.265,1.504-6.265,1.504s5.105,9.396,15.033,10.522c-4.385,4.229-10.868,7.799-24.053,7.266
		c6.765,6.516,39.833,13.724,59.13-6.044c19.26-19.73,15.127-37.77,15.127-37.77l9.375-9.159l-8.969,3.115l7.299-9.741
		l-11.275,5.168c0,0-7.508-8.594-18.57-4.698C52.563,20.248,48.052,28.14,48.616,37.817z"/>
</g>
</svg>
